<svg preserveAspectRatio="none" width="100%" height="100%" overflow="visible" style="display: block;" viewBox="0 0 16 12" fill="none" xmlns="http://www.w3.org/2000/svg">
<path id="Vector" d="M0.00228568 2.34709C0.0312896 1.71529 0.314647 1.11855 0.793285 0.681276C1.27192 0.244007 1.9089 -4.41474e-05 2.57143 5.99008e-09H13.4286C14.0911 -4.41474e-05 14.7281 0.244007 15.2067 0.681276C15.6854 1.11855 15.9687 1.71529 15.9977 2.34709L15.1543 2.79436L8 6.47127L0.845714 2.79436L0.00228568 2.34709ZM0 3.59345V9.54545C0 10.1964 0.270918 10.8208 0.753154 11.2811C1.23539 11.7414 1.88944 12 2.57143 12H13.4286C14.1106 12 14.7646 11.7414 15.2468 11.2811C15.7291 10.8208 16 10.1964 16 9.54545V3.59345L15.6994 3.75327L8.27086 7.57146C8.18761 7.61423 8.09454 7.63662 8 7.63662C7.90546 7.63662 7.81239 7.61423 7.72914 7.57146L0.293714 3.74945L0 3.59345Z" fill="var(--fill-0, #332D21)"/>
</svg>
