<svg preserveAspectRatio="none" width="100%" height="100%" overflow="visible" style="display: block;" viewBox="0 0 16 13.3333" fill="none" xmlns="http://www.w3.org/2000/svg">
<path id="Vector" d="M14.6359 0.117711C14.6359 0.117711 16.116 -0.459432 15.9927 0.942201C15.9516 1.51935 15.5816 3.53935 15.2938 5.72426L14.307 12.1965C14.307 12.1965 14.2248 13.1447 13.4847 13.3096C12.7447 13.4745 11.6346 12.7324 11.429 12.5675C11.2645 12.4439 8.34545 10.5888 7.31757 9.68182C7.02976 9.43447 6.70084 8.93977 7.35867 8.36262L11.6757 4.24019C12.1691 3.74548 12.6624 2.5912 10.6067 3.99284L4.85071 7.90918C4.85071 7.90918 4.19288 8.3214 2.95947 7.95039L0.287018 7.1259C0.287018 7.1259 -0.69973 6.50754 0.985963 5.88914C5.09741 3.95158 10.1545 1.9728 14.6359 0.117711Z" fill="var(--fill-0, #332D21)"/>
</svg>
