<svg width="256" height="78" viewBox="0 0 256 78" fill="none" xmlns="http://www.w3.org/2000/svg">
<g clip-path="url(#clip0_460_141)">
<path d="M31.7897 46.9141L6.92298 40.6443C6.70679 40.5898 6.55448 40.4162 6.52991 40.188C6.50534 39.9648 6.61344 39.7614 6.80997 39.6572L15.3593 35.2228C15.4674 35.1682 15.5755 35.1533 15.6934 35.1831L27.7853 38.2336C27.972 38.2832 28.1587 38.2287 28.2963 38.0848L32.2221 33.9281C32.3204 33.824 32.4432 33.7744 32.5857 33.7793C32.7282 33.7793 32.8461 33.8438 32.9345 33.9529L37.9904 40.059C38.1624 40.2673 38.1526 40.5699 37.9659 40.7634L32.3007 46.7653C32.168 46.9091 31.9813 46.9587 31.7897 46.9141ZM41.0515 3.44242C41.0515 4.08725 40.5356 4.60312 39.9017 4.60312C39.2679 4.60312 38.752 4.08229 38.752 3.44242C38.752 2.80254 39.2679 2.28172 39.9017 2.28172C40.5356 2.28172 41.0515 2.80254 41.0515 3.44242ZM39.8968 0C39.7396 0 39.602 0.0644833 39.4988 0.183529L37.0176 3.0952C36.8456 3.29361 36.8456 3.58626 37.0176 3.78467L39.4988 6.69634C39.602 6.82035 39.7396 6.88483 39.8968 6.88483C40.054 6.88483 40.1916 6.82035 40.2948 6.69634L42.7761 3.78467C42.948 3.5813 42.948 3.29361 42.7761 3.0952L40.2948 0.183529C40.1916 0.0644833 40.054 0 39.8968 0ZM28.6599 28.7992L31.775 32.5591C31.9322 32.7476 31.9224 33.0204 31.7553 33.199L28.026 37.1473C27.8934 37.2912 27.7067 37.3408 27.52 37.2962L18.0125 34.8954C17.7963 34.8408 17.644 34.6672 17.6195 34.444C17.5949 34.2208 17.703 34.0125 17.8995 33.9133L28.0162 28.6703C28.2373 28.5562 28.4977 28.6058 28.6599 28.8042V28.7992ZM32.286 31.8548L28.8761 27.7328C28.7188 27.5393 28.4535 27.4848 28.2324 27.5989C24.0216 29.7863 19.8108 31.9639 15.6 34.1514C15.4821 34.2109 15.3593 34.2258 15.2315 34.196L3.69488 31.2893C3.45903 31.2298 3.30181 31.0264 3.29689 30.7833C3.29689 30.5403 3.44921 30.332 3.68014 30.2625L27.4807 23.6059C27.6821 23.5513 27.8836 23.6108 28.0162 23.7695L33.6961 30.4411C33.873 30.6494 33.8632 30.9569 33.6765 31.1554L32.9935 31.8796C32.8952 31.9837 32.7724 32.0333 32.6299 32.0284C32.4874 32.0234 32.3695 31.9639 32.281 31.8548H32.286ZM13.0451 35.4757L4.44663 39.93C4.25009 40.0342 4.142 40.2376 4.16656 40.4608C4.19113 40.684 4.34345 40.8576 4.55964 40.9122L32.0649 47.8516C32.2516 47.8962 32.4383 47.8417 32.5709 47.7028L38.0199 41.929C38.1378 41.805 38.2901 41.7505 38.4572 41.7703C38.6242 41.7901 38.7618 41.8745 38.8503 42.0233L39.3121 42.7921C39.4251 42.9806 39.4153 43.2137 39.2826 43.3873L38.5358 44.3794L34.0007 49.6075C33.8877 49.7365 33.8484 49.8952 33.8828 50.0638L38.4621 72.2263L39.5676 77.5784C39.6118 77.8016 39.7887 77.9653 40.0098 77.995C40.0344 77.995 40.0639 78 40.0884 78C40.3439 78 40.5552 77.8165 40.5994 77.5635C40.9188 75.7828 41.2382 74.007 41.5575 72.2263C42.8842 64.8305 44.2108 57.4397 45.5423 50.049C45.5718 49.9002 45.5374 49.7563 45.444 49.6323L41.4838 44.3844L40.737 43.3923C40.6044 43.2137 40.5896 42.9856 40.7075 42.7971L41.1694 42.0282C41.2578 41.8844 41.3954 41.7951 41.5625 41.7753C41.7295 41.7554 41.8818 41.81 41.9998 41.934L47.4487 47.7077C47.5814 47.8516 47.7681 47.9012 47.9548 47.8565L75.4551 40.9171C75.6713 40.8626 75.8236 40.689 75.8531 40.4608C75.8777 40.2376 75.7696 40.0342 75.573 39.93L66.9746 35.4708C66.778 35.3666 66.6699 35.1632 66.6945 34.94C66.7191 34.7168 66.8714 34.5432 67.0876 34.4837L79.6217 31.324C79.8575 31.2645 80.0147 31.0611 80.0197 30.8181C80.0197 30.575 79.8673 30.3667 79.6364 30.3022C70.5073 27.7477 61.3782 25.1981 52.2491 22.6386C52.0477 22.584 51.8462 22.6436 51.7086 22.8072L45.8322 29.707C45.7339 29.821 45.6062 29.8756 45.4637 29.8756C45.3163 29.8756 45.1886 29.8111 45.1001 29.6921L40.796 24.2358C40.6535 24.0572 40.6535 23.8142 40.796 23.6356L46.24 16.7359C46.3972 16.5424 46.3972 16.2696 46.24 16.0762L40.4324 8.71021C40.3292 8.58124 40.1867 8.5118 40.0197 8.5118C39.8526 8.5118 39.715 8.58124 39.6069 8.71021L33.7993 16.0762C33.647 16.2746 33.647 16.5424 33.7993 16.7359L39.2433 23.6356C39.3809 23.8142 39.3809 24.0572 39.2433 24.2358L34.9392 29.6921C34.8458 29.8062 34.7181 29.8707 34.5756 29.8756C34.4282 29.8756 34.3005 29.821 34.2022 29.707C32.2467 27.4054 30.2862 25.1038 28.3258 22.8072C28.1882 22.6485 27.9867 22.584 27.7853 22.6386C18.6562 25.1931 9.52709 27.7477 0.402899 30.3022C0.152315 30.3667 0 30.575 0 30.823C0 31.0661 0.162142 31.2694 0.397986 31.329L12.9272 34.4936C13.1433 34.5482 13.2957 34.7218 13.3251 34.945C13.3497 35.1682 13.2416 35.3765 13.0402 35.4757H13.0451ZM39.5185 37.7723C39.6561 37.9459 39.6708 38.1791 39.5529 38.3725L39.15 39.0471C39.0566 39.1959 38.9141 39.2852 38.7373 39.3001C38.5604 39.315 38.4081 39.2455 38.2951 39.1116L33.4406 33.2486C33.2834 33.0601 33.2932 32.7823 33.4603 32.6038L34.1629 31.8597C34.2611 31.7556 34.3889 31.7059 34.5314 31.7109C34.6739 31.7159 34.7918 31.7804 34.8852 31.8944L39.5185 37.7674V37.7723ZM39.263 72.008L34.782 50.3069C34.7476 50.1383 34.7869 49.9795 34.8999 49.8506L39.1844 44.9101L39.6315 44.3943C39.7298 44.2802 39.8526 44.2207 40 44.2157C40.0147 44.2157 40.0295 44.2157 40.0442 44.2157C40.2064 44.2207 40.3439 44.2951 40.4471 44.424L40.8156 44.9101L44.5449 49.8506C44.6383 49.9746 44.6726 50.1134 44.6432 50.2672L40.737 72.008L40.5356 73.1389C40.4913 73.3919 40.2801 73.5705 40.0295 73.5755H40.0049C39.7592 73.5655 39.5578 73.3969 39.5037 73.1538L39.2679 72.013L39.263 72.008ZM47.7042 46.7702L42.0391 40.7683C41.8524 40.5749 41.8425 40.2723 42.0145 40.064L47.0704 33.9579C47.1588 33.8488 47.2817 33.7893 47.4241 33.7843C47.5617 33.7793 47.6895 33.8289 47.7877 33.9331L51.7136 38.0898C51.8462 38.2336 52.0329 38.2882 52.2196 38.2386L64.2919 35.193C64.4196 35.1632 64.5424 35.1732 64.6604 35.2376L73.1949 39.6622C73.3915 39.7664 73.4996 39.9697 73.475 40.1929C73.4504 40.4162 73.2981 40.5898 73.0819 40.6493L48.2201 46.919C48.0334 46.9686 47.8467 46.9141 47.714 46.7702H47.7042ZM46.5545 33.2535L41.7 39.1166C41.587 39.2505 41.4298 39.3199 41.2578 39.3051C41.0809 39.2902 40.9385 39.2009 40.85 39.0521L40.4422 38.3775C40.3292 38.184 40.339 37.9509 40.4766 37.7773L45.1099 31.9044C45.1984 31.7903 45.3212 31.7258 45.4637 31.7208C45.6062 31.7159 45.7339 31.7655 45.8322 31.8696L46.5348 32.6137C46.7019 32.7922 46.7117 33.0651 46.5545 33.2585V33.2535ZM46.3186 31.1504C46.1319 30.952 46.1221 30.6445 46.299 30.4361L51.9789 23.7646C52.1164 23.6059 52.3179 23.5414 52.5193 23.6009L76.3199 30.2576C76.5508 30.322 76.708 30.5304 76.708 30.7784C76.708 31.0214 76.541 31.2248 76.31 31.2843L64.7734 34.191C64.6456 34.2258 64.5228 34.2109 64.4049 34.1464C60.1941 31.9639 55.9784 29.7814 51.7676 27.5939C51.5465 27.4798 51.2812 27.5344 51.1239 27.7278L47.714 31.8498C47.6256 31.9589 47.5028 32.0184 47.3603 32.0234C47.2178 32.0234 47.095 31.9788 47.0016 31.8746L46.3186 31.1504ZM39.5873 36.4926L35.3519 31.1206C35.2143 30.9421 35.2143 30.699 35.3519 30.5204L39.6266 25.0989C39.7199 24.9798 39.8477 24.9154 40 24.9154C40.1523 24.9154 40.2801 24.9798 40.3734 25.0989L44.6481 30.5204C44.7906 30.699 44.7906 30.9421 44.6481 31.1206L40.4127 36.4926C40.3095 36.6216 40.1671 36.691 40 36.691C39.8329 36.691 39.6954 36.6216 39.5873 36.4926ZM40.4127 22.7378C40.3095 22.8717 40.1671 22.9412 40 22.9412C39.8329 22.9412 39.6954 22.8717 39.5873 22.7378L34.8557 16.7409C34.7034 16.5474 34.7034 16.2746 34.8557 16.0811L39.5873 10.0842C39.6905 9.95523 39.8329 9.88579 40 9.88579C40.1671 9.88579 40.3095 9.95523 40.4127 10.0842L45.1443 16.0811C45.3016 16.2796 45.3016 16.5474 45.1443 16.7409L40.4127 22.7378ZM51.9789 37.1473L48.2496 33.199C48.0825 33.0204 48.0727 32.7476 48.2299 32.5591L51.3401 28.7992C51.4974 28.6058 51.7627 28.5512 51.9838 28.6653L62.1005 33.9083C62.3019 34.0125 62.41 34.2158 62.3805 34.439C62.356 34.6623 62.2037 34.8359 61.9875 34.8904L52.48 37.2912C52.2933 37.3358 52.1066 37.2813 51.974 37.1424L51.9789 37.1473ZM40 41.9538C39.3662 41.9538 38.8503 41.433 38.8503 40.7931C38.8503 40.1533 39.3662 39.6275 40 39.6275C40.6338 39.6275 41.1497 40.1483 41.1497 40.7931C41.1497 41.438 40.6338 41.9538 40 41.9538Z" fill="#CC9A10"/>
</g>
<path d="M256 29.3047L248.737 40.6897V48.6953H247.696V40.662L240.461 29.3047H241.615L248.231 39.7202L254.846 29.3047H256Z" fill="#CC9A10"/>
<path d="M232.376 47.7535H241.947V48.6953H231.334V29.3047H232.376V47.7535Z" fill="#CC9A10"/>
<path d="M227.38 30.2465H217.669V38.6122H227.155V39.554H217.669V48.6953H216.627V29.3047H227.38V30.2465Z" fill="#CC9A10"/>
<path d="M210.339 29.3047H211.381V48.6953H210.452L198.151 31.133V48.6953H197.109V29.3047H198.066L210.339 46.867V29.3047Z" fill="#CC9A10"/>
<path d="M190.012 46.0914C188.041 48.0305 185.648 49 182.833 49C180.018 49 177.616 48.0305 175.627 46.0914C173.657 44.1339 172.671 41.7701 172.671 39C172.671 36.2299 173.657 33.8753 175.627 31.9363C177.616 29.9788 180.018 29 182.833 29C185.648 29 188.041 29.9788 190.012 31.9363C192.001 33.8753 192.996 36.2299 192.996 39C192.996 41.7701 192.001 44.1339 190.012 46.0914ZM176.359 45.3989C178.142 47.1533 180.3 48.0305 182.833 48.0305C185.367 48.0305 187.516 47.1533 189.28 45.3989C191.063 43.626 191.954 41.4931 191.954 39C191.954 36.5069 191.063 34.3832 189.28 32.6288C187.516 30.856 185.367 29.9695 182.833 29.9695C180.3 29.9695 178.142 30.856 176.359 32.6288C174.595 34.3832 173.713 36.5069 173.713 39C173.713 41.4931 174.595 43.626 176.359 45.3989Z" fill="#CC9A10"/>
<path d="M169.671 39.831V40.3573C169.671 42.7765 168.808 44.8264 167.082 46.5069C165.355 48.169 163.084 49 160.269 49C157.267 49 154.78 48.0397 152.809 46.1191C150.858 44.1801 149.882 41.807 149.882 39C149.882 36.2114 150.848 33.8476 152.781 31.9086C154.733 29.9695 157.173 29 160.1 29C161.883 29 163.525 29.4247 165.027 30.2742C166.528 31.1053 167.682 32.2318 168.489 33.6537L167.588 34.1524C166.875 32.8781 165.843 31.8624 164.492 31.1053C163.159 30.3481 161.695 29.9695 160.1 29.9695C157.454 29.9695 155.259 30.8467 153.513 32.6011C151.787 34.337 150.923 36.47 150.923 39C150.923 41.53 151.796 43.6722 153.541 45.4266C155.305 47.1625 157.548 48.0305 160.269 48.0305C162.709 48.0305 164.689 47.3379 166.209 45.9529C167.729 44.5679 168.545 42.8412 168.658 40.7729H159.819V39.831H169.671Z" fill="#CC9A10"/>
<path d="M147.446 48.6953L145.42 43.5706H135.089L133.062 48.6953H131.964L139.677 29.3047H140.803L148.544 48.6953H147.446ZM135.455 42.6288H145.054L140.24 30.4958L135.455 42.6288Z" fill="#CC9A10"/>
<path d="M130.636 48.6953H129.482L124.612 40.5789H117.687V48.6953H116.645V29.3047H124.358C125.935 29.3047 127.276 29.8587 128.384 30.9668C129.51 32.0563 130.073 33.3767 130.073 34.928C130.073 36.2391 129.66 37.4118 128.834 38.446C128.008 39.4617 126.957 40.1265 125.681 40.4404L130.636 48.6953ZM117.687 39.6371H124.358C125.634 39.6371 126.732 39.1754 127.652 38.2521C128.571 37.3287 129.031 36.2207 129.031 34.928C129.031 33.6353 128.571 32.5365 127.652 31.6316C126.732 30.7082 125.634 30.2465 124.358 30.2465H117.687V39.6371Z" fill="#CC9A10"/>
<path d="M103.235 29.3047C105.918 29.3047 108.133 30.2465 109.878 32.1302C111.642 33.9954 112.524 36.2853 112.524 39C112.524 41.7147 111.642 44.0138 109.878 45.8975C108.133 47.7627 105.918 48.6953 103.235 48.6953H96V29.3047H103.235ZM103.235 47.7535C105.637 47.7535 107.617 46.9132 109.174 45.2327C110.732 43.5337 111.511 41.4561 111.511 39C111.511 36.5439 110.732 34.4755 109.174 32.795C107.617 31.096 105.637 30.2465 103.235 30.2465H97.0415V47.7535H103.235Z" fill="#CC9A10"/>
<defs>
<clipPath id="clip0_460_141">
<rect width="80" height="78" fill="white"/>
</clipPath>
</defs>
</svg>
