<svg preserveAspectRatio="none" width="100%" height="100%" overflow="visible" style="display: block;" viewBox="0 0 160 20" fill="none" xmlns="http://www.w3.org/2000/svg">
<g id="Vector">
<path d="M160 0.304708L152.737 11.6897V19.6953H151.696V11.662L144.461 0.304708H145.615L152.231 10.7202L158.846 0.304708H160Z" fill="var(--fill-0, #CC9A10)"/>
<path d="M136.376 18.7535H145.947V19.6953H135.334V0.304708H136.376V18.7535Z" fill="var(--fill-0, #CC9A10)"/>
<path d="M131.38 1.24654H121.669V9.61219H131.155V10.554H121.669V19.6953H120.627V0.304708H131.38V1.24654Z" fill="var(--fill-0, #CC9A10)"/>
<path d="M114.339 0.304708H115.381V19.6953H114.452L102.151 2.13296V19.6953H101.109V0.304708H102.066L114.339 17.867V0.304708Z" fill="var(--fill-0, #CC9A10)"/>
<path d="M94.0116 17.0914C92.0411 19.0305 89.6484 20 86.8334 20C84.0184 20 81.6163 19.0305 79.627 17.0914C77.6565 15.1339 76.6713 12.7701 76.6713 10C76.6713 7.22992 77.6565 4.87535 79.627 2.93629C81.6163 0.978763 84.0184 0 86.8334 0C89.6484 0 92.0411 0.978763 94.0116 2.93629C96.0009 4.87535 96.9955 7.22992 96.9955 10C96.9955 12.7701 96.0009 15.1339 94.0116 17.0914ZM80.3589 16.3989C82.1417 18.1533 84.2999 19.0305 86.8334 19.0305C89.3669 19.0305 91.5157 18.1533 93.2797 16.3989C95.0626 14.626 95.954 12.4931 95.954 10C95.954 7.50692 95.0626 5.38319 93.2797 3.62881C91.5157 1.85595 89.3669 0.969528 86.8334 0.969528C84.2999 0.969528 82.1417 1.85595 80.3589 3.62881C78.5948 5.38319 77.7128 7.50692 77.7128 10C77.7128 12.4931 78.5948 14.626 80.3589 16.3989Z" fill="var(--fill-0, #CC9A10)"/>
<path d="M73.6713 10.831V11.3573C73.6713 13.7765 72.8081 15.8264 71.0815 17.5069C69.355 19.169 67.0842 20 64.2692 20C61.2666 20 58.78 19.0397 56.8095 17.1191C54.8578 15.1801 53.8819 12.807 53.8819 10C53.8819 7.21145 54.8484 4.84764 56.7813 2.90859C58.7331 0.969529 61.1727 0 64.1003 0C65.8832 0 67.5252 0.424746 69.0266 1.27424C70.5279 2.10526 71.6821 3.23176 72.489 4.65374L71.5882 5.15235C70.8751 3.87812 69.8429 2.86242 68.4917 2.10526C67.1593 1.34811 65.6955 0.969528 64.1003 0.969528C61.4542 0.969528 59.2585 1.84672 57.5132 3.60111C55.7867 5.33703 54.9234 7.46999 54.9234 10C54.9234 12.53 55.7961 14.6722 57.5414 16.4266C59.3055 18.1625 61.5481 19.0305 64.2692 19.0305C66.7089 19.0305 68.6888 18.338 70.2089 16.9529C71.729 15.5679 72.5453 13.8412 72.6579 11.7729H63.8188V10.831H73.6713Z" fill="var(--fill-0, #CC9A10)"/>
<path d="M51.4465 19.6953L49.4197 14.5706H39.0886L37.0618 19.6953H35.964L43.6771 0.304708H44.8031L52.5443 19.6953H51.4465ZM39.4546 13.6288H49.0537L44.2401 1.49584L39.4546 13.6288Z" fill="var(--fill-0, #CC9A10)"/>
<path d="M34.6357 19.6953H33.4815L28.6116 11.5789H21.6867V19.6953H20.6451V0.304708H28.3582C29.9346 0.304708 31.2764 0.858725 32.3837 1.96676C33.5097 3.05632 34.0727 4.37673 34.0727 5.92798C34.0727 7.23915 33.6598 8.41182 32.8341 9.44598C32.0083 10.4617 30.9574 11.1265 29.6813 11.4404L34.6357 19.6953ZM21.6867 10.6371H28.3582C29.6344 10.6371 30.7322 10.1754 31.6518 9.25208C32.5713 8.32872 33.0311 7.22068 33.0311 5.92798C33.0311 4.63527 32.5713 3.53647 31.6518 2.63158C30.7322 1.70822 29.6344 1.24654 28.3582 1.24654H21.6867V10.6371Z" fill="var(--fill-0, #CC9A10)"/>
<path d="M7.23454 0.304708C9.91817 0.304708 12.1326 1.24654 13.8779 3.13019C15.642 4.99538 16.524 7.28532 16.524 10C16.524 12.7147 15.642 15.0138 13.8779 16.8975C12.1326 18.7627 9.91817 19.6953 7.23454 19.6953H0V0.304708H7.23454ZM7.23454 18.7535C9.63667 18.7535 11.6166 17.9132 13.1742 16.2327C14.7318 14.5337 15.5106 12.4561 15.5106 10C15.5106 7.54386 14.7318 5.47553 13.1742 3.79501C11.6166 2.09603 9.63667 1.24654 7.23454 1.24654H1.04155V18.7535H7.23454Z" fill="var(--fill-0, #CC9A10)"/>
</g>
</svg>
