<svg preserveAspectRatio="none" width="100%" height="100%" overflow="visible" style="display: block;" viewBox="0 0 64.0157 62" fill="none" xmlns="http://www.w3.org/2000/svg">
<path id="Vector" d="M25.4318 37.2907L5.53839 32.307C5.36543 32.2637 5.24358 32.1257 5.22393 31.9443C5.20427 31.7669 5.29075 31.6052 5.44798 31.5224L12.2874 27.9976C12.3739 27.9542 12.4604 27.9424 12.5547 27.966L22.2282 30.3908C22.3776 30.4303 22.527 30.3869 22.637 30.2726L25.7777 26.9685C25.8563 26.8857 25.9546 26.8463 26.0685 26.8502C26.1825 26.8502 26.2769 26.9015 26.3476 26.9882L30.3923 31.8418C30.5299 32.0074 30.522 32.2479 30.3727 32.4017L25.8406 37.1724C25.7344 37.2867 25.5851 37.3262 25.4318 37.2907ZM32.8412 2.73628C32.8412 3.24884 32.4284 3.65889 31.9214 3.65889C31.4143 3.65889 31.0016 3.2449 31.0016 2.73628C31.0016 2.22766 31.4143 1.81367 31.9214 1.81367C32.4284 1.81367 32.8412 2.22766 32.8412 2.73628ZM31.9175 0C31.7917 0 31.6816 0.051256 31.5991 0.145882L29.6141 2.46029C29.4765 2.618 29.4765 2.85062 29.6141 3.00833L31.5991 5.32273C31.6816 5.4213 31.7917 5.47256 31.9175 5.47256C32.0432 5.47256 32.1533 5.4213 32.2358 5.32273L34.2209 3.00833C34.3584 2.84668 34.3584 2.618 34.2209 2.46029L32.2358 0.145882C32.1533 0.051256 32.0432 0 31.9175 0ZM22.9279 22.8917L25.42 25.8803C25.5458 26.0301 25.5379 26.247 25.4042 26.3889L22.4208 29.5274C22.3147 29.6417 22.1653 29.6811 22.016 29.6457L14.41 27.7374C14.2371 27.694 14.1152 27.556 14.0956 27.3786C14.0759 27.2011 14.1624 27.0355 14.3196 26.9567L22.413 22.7892C22.5899 22.6985 22.7982 22.7379 22.9279 22.8956V22.8917ZM25.8288 25.3204L23.1008 22.044C22.9751 21.8902 22.7628 21.8469 22.5859 21.9376C19.2173 23.6763 15.8487 25.4072 12.48 27.1459C12.3857 27.1933 12.2874 27.2051 12.1852 27.1814L2.9559 24.871C2.76723 24.8237 2.64144 24.662 2.63751 24.4688C2.63751 24.2756 2.75937 24.11 2.94411 24.0548L21.9845 18.7636C22.1457 18.7203 22.3068 18.7676 22.413 18.8937L26.9569 24.1968C27.0984 24.3624 27.0905 24.6068 26.9412 24.7645L26.3948 25.3402C26.3162 25.423 26.2179 25.4624 26.1039 25.4584C25.9899 25.4545 25.8956 25.4072 25.8248 25.3204H25.8288ZM10.4361 28.1987L3.5573 31.7393C3.40007 31.8221 3.3136 31.9837 3.33325 32.1611C3.3529 32.3386 3.47476 32.4766 3.64771 32.5199L25.6519 38.0359C25.8013 38.0714 25.9506 38.028 26.0567 37.9176L30.4159 33.3282C30.5103 33.2296 30.6321 33.1863 30.7658 33.202C30.8994 33.2178 31.0095 33.2848 31.0802 33.4031L31.4497 34.0142C31.5401 34.1641 31.5322 34.3494 31.4261 34.4874L30.8286 35.2759L27.2006 39.4316C27.1102 39.5341 27.0787 39.6603 27.1063 39.7943L30.7697 57.4106L31.6541 61.6649C31.6895 61.8423 31.831 61.9724 32.0079 61.9961C32.0275 61.9961 32.0511 62 32.0708 62C32.2751 62 32.4442 61.8541 32.4795 61.653C32.735 60.2376 32.9905 58.8261 33.246 57.4106C34.3073 51.532 35.3686 45.6572 36.4339 39.7825C36.4574 39.6642 36.4299 39.5499 36.3552 39.4513L33.1871 35.2799L32.5896 34.4913C32.4835 34.3494 32.4717 34.168 32.566 34.0182L32.9355 33.4071C33.0063 33.2927 33.1163 33.2217 33.25 33.206C33.3836 33.1902 33.5055 33.2336 33.5998 33.3321L37.959 37.9215C38.0651 38.0359 38.2145 38.0753 38.3638 38.0398L60.3641 32.5239C60.537 32.4805 60.6589 32.3425 60.6825 32.1611C60.7021 31.9837 60.6156 31.8221 60.4584 31.7393L53.5797 28.1947C53.4224 28.1119 53.336 27.9503 53.3556 27.7728C53.3753 27.5954 53.4971 27.4574 53.6701 27.4101L63.6973 24.8986C63.886 24.8513 64.0118 24.6896 64.0157 24.4964C64.0157 24.3032 63.8939 24.1376 63.7091 24.0864C56.4058 22.0558 49.1026 20.0293 41.7993 17.9948C41.6381 17.9514 41.477 17.9987 41.3669 18.1288L36.6658 23.6132C36.5872 23.7039 36.485 23.7473 36.371 23.7473C36.253 23.7473 36.1508 23.696 36.0801 23.6014L32.6368 19.2644C32.5228 19.1224 32.5228 18.9292 32.6368 18.7873L36.992 13.3029C37.1178 13.1491 37.1178 12.9323 36.992 12.7785L32.3459 6.9235C32.2634 6.82099 32.1494 6.76579 32.0157 6.76579C31.8821 6.76579 31.772 6.82099 31.6855 6.9235L27.0394 12.7785C26.9176 12.9362 26.9176 13.1491 27.0394 13.3029L31.3947 18.7873C31.5047 18.9292 31.5047 19.1224 31.3947 19.2644L27.9514 23.6014C27.8767 23.6921 27.7745 23.7433 27.6605 23.7473C27.5426 23.7473 27.4404 23.7039 27.3617 23.6132C25.7973 21.7838 24.229 19.9543 22.6606 18.1288C22.5505 18.0027 22.3894 17.9514 22.2282 17.9948C14.9249 20.0253 7.62167 22.0558 0.322319 24.0864C0.121852 24.1376 0 24.3032 0 24.5003C0 24.6935 0.129714 24.8552 0.318388 24.9025L10.3417 27.418C10.5147 27.4614 10.6365 27.5994 10.6601 27.7768C10.6798 27.9542 10.5933 28.1198 10.4321 28.1987H10.4361ZM31.6148 30.0242C31.7248 30.1622 31.7366 30.3475 31.6423 30.5012L31.32 31.0375C31.2453 31.1557 31.1313 31.2267 30.9898 31.2385C30.8483 31.2504 30.7264 31.1952 30.636 31.0887L26.7525 26.4284C26.6267 26.2785 26.6346 26.0577 26.7682 25.9158L27.3303 25.3244C27.4089 25.2416 27.5111 25.2022 27.6251 25.2061C27.7391 25.21 27.8334 25.2613 27.9081 25.352L31.6148 30.0202V30.0242ZM31.4104 57.2371L27.8256 39.9875C27.7981 39.8535 27.8295 39.7273 27.9199 39.6248L31.3475 35.6978L31.7052 35.2878C31.7838 35.1971 31.8821 35.1498 32 35.1458C32.0118 35.1458 32.0236 35.1458 32.0354 35.1458C32.1651 35.1498 32.2751 35.2089 32.3577 35.3114L32.6525 35.6978L35.6359 39.6248C35.7106 39.7234 35.7381 39.8338 35.7145 39.956L32.5896 57.2371L32.4284 58.1361C32.3931 58.3372 32.2241 58.4791 32.0236 58.4831H32.0039C31.8074 58.4752 31.6462 58.3411 31.603 58.1479L31.4143 57.2411L31.4104 57.2371ZM38.1634 37.1763L33.6312 32.4056C33.4819 32.2518 33.474 32.0113 33.6116 31.8457L37.6563 26.9922C37.7271 26.9054 37.8253 26.8581 37.9393 26.8542C38.0494 26.8502 38.1516 26.8897 38.2302 26.9725L41.3708 30.2765C41.477 30.3908 41.6263 30.4342 41.7757 30.3948L51.4335 27.9739C51.5357 27.9503 51.634 27.9582 51.7283 28.0094L58.556 31.5264C58.7132 31.6092 58.7997 31.7708 58.78 31.9482C58.7603 32.1257 58.6385 32.2637 58.4655 32.311L38.5761 37.2946C38.4267 37.3341 38.2774 37.2907 38.1712 37.1763H38.1634ZM37.2436 26.4323L33.36 31.0927C33.2696 31.1991 33.1438 31.2543 33.0063 31.2425C32.8648 31.2307 32.7508 31.1597 32.68 31.0414L32.3538 30.5052C32.2634 30.3514 32.2712 30.1661 32.3813 30.0281L36.0879 25.3599C36.1587 25.2692 36.257 25.2179 36.371 25.214C36.485 25.21 36.5872 25.2495 36.6658 25.3323L37.2279 25.9237C37.3615 26.0656 37.3694 26.2825 37.2436 26.4362V26.4323ZM37.0549 24.7606C36.9055 24.6029 36.8977 24.3584 37.0392 24.1928L41.5831 18.8898C41.6932 18.7636 41.8543 18.7124 42.0155 18.7597L61.0559 24.0509C61.2406 24.1021 61.3664 24.2677 61.3664 24.4649C61.3664 24.6581 61.2328 24.8197 61.048 24.867L51.8187 27.1775C51.7165 27.2051 51.6182 27.1933 51.5239 27.142C48.1553 25.4072 44.7827 23.6724 41.4141 21.9336C41.2372 21.8429 41.0249 21.8863 40.8992 22.0401L38.1712 25.3165C38.1005 25.4032 38.0022 25.4506 37.8882 25.4545C37.7742 25.4545 37.676 25.419 37.6013 25.3362L37.0549 24.7606ZM31.6698 29.0069L28.2815 24.7369C28.1715 24.595 28.1715 24.4018 28.2815 24.2598L31.7013 19.9504C31.7759 19.8558 31.8781 19.8045 32 19.8045C32.1219 19.8045 32.224 19.8558 32.2987 19.9504L35.7185 24.2598C35.8325 24.4018 35.8325 24.595 35.7185 24.7369L32.3302 29.0069C32.2476 29.1094 32.1336 29.1646 32 29.1646C31.8664 29.1646 31.7563 29.1094 31.6698 29.0069ZM32.3302 18.0736C32.2476 18.1801 32.1336 18.2353 32 18.2353C31.8664 18.2353 31.7563 18.1801 31.6698 18.0736L27.8845 13.3068C27.7627 13.1531 27.7627 12.9362 27.8845 12.7824L31.6698 8.01564C31.7524 7.91313 31.8664 7.85793 32 7.85793C32.1336 7.85793 32.2476 7.91313 32.3302 8.01564L36.1155 12.7824C36.2412 12.9402 36.2412 13.1531 36.1155 13.3068L32.3302 18.0736ZM41.5831 29.5274L38.5997 26.3889C38.466 26.247 38.4582 26.0301 38.584 25.8803L41.0721 22.8917C41.1979 22.7379 41.4101 22.6946 41.587 22.7852L49.6804 26.9527C49.8415 27.0355 49.928 27.1972 49.9044 27.3746C49.8848 27.5521 49.7629 27.69 49.59 27.7334L41.984 29.6417C41.8347 29.6772 41.6853 29.6338 41.5792 29.5234L41.5831 29.5274ZM32 33.3479C31.4929 33.3479 31.0802 32.9339 31.0802 32.4253C31.0802 31.9167 31.4929 31.4988 32 31.4988C32.5071 31.4988 32.9198 31.9127 32.9198 32.4253C32.9198 32.9379 32.5071 33.3479 32 33.3479Z" fill="var(--fill-0, #CC9A10)"/>
</svg>
