<svg preserveAspectRatio="none" width="100%" height="100%" overflow="visible" style="display: block;" viewBox="0 0 22 18.3333" fill="none" xmlns="http://www.w3.org/2000/svg">
<path id="Vector" d="M20.1244 0.161852C20.1244 0.161852 22.1596 -0.631719 21.99 1.29553C21.9334 2.08911 21.4247 4.86661 21.0289 7.87086L19.6722 16.7702C19.6722 16.7702 19.5591 18.0739 18.5415 18.3007C17.5239 18.5274 15.9976 17.5071 15.7149 17.2804C15.4887 17.1103 11.475 14.5595 10.0617 13.3125C9.66592 12.9724 9.21366 12.2922 10.1182 11.4986L16.0541 5.83026C16.7325 5.15004 17.4109 3.5629 14.5842 5.49015L6.66972 10.8751C6.66972 10.8751 5.76521 11.4419 4.06927 10.9318L0.394649 9.79811C0.394649 9.79811 -0.962128 8.94787 1.3557 8.09757C7.00894 5.43342 13.9624 2.7126 20.1244 0.161852Z" fill="var(--fill-0, white)"/>
</svg>
