<svg width="24" height="24" viewBox="0 0 24 24" fill="none" xmlns="http://www.w3.org/2000/svg">
<path d="M21.9539 2.17657C21.9539 2.17657 24.1741 1.31085 23.989 3.4133C23.9274 4.27903 23.3724 7.30902 22.9406 10.5864L21.4605 20.2948C21.4605 20.2948 21.3372 21.717 20.2271 21.9644C19.117 22.2117 17.4519 21.0987 17.1435 20.8513C16.8968 20.6658 12.5182 17.8831 10.9763 16.5227C10.5446 16.1517 10.0513 15.4096 11.038 14.5439L17.5136 8.36028C18.2536 7.61823 18.9937 5.8868 15.9101 7.98925L7.27606 13.8638C7.27606 13.8638 6.28932 14.4821 4.4392 13.9256L0.430527 12.6888C0.430527 12.6888 -1.04959 11.7613 1.47894 10.8337C7.64612 7.92737 15.2317 4.9592 21.9539 2.17657Z" fill="white"/>
</svg>
