<svg width="16" height="16" viewBox="0 0 16 16" fill="none" xmlns="http://www.w3.org/2000/svg">
<path d="M0.00228568 4.34709C0.0312896 3.71529 0.314647 3.11855 0.793285 2.68128C1.27192 2.24401 1.9089 1.99996 2.57143 2H13.4286C14.0911 1.99996 14.7281 2.24401 15.2067 2.68128C15.6854 3.11855 15.9687 3.71529 15.9977 4.34709L15.1543 4.79436L8 8.47127L0.845714 4.79436L0.00228568 4.34709ZM0 5.59345V11.5455C0 12.1964 0.270918 12.8208 0.753154 13.2811C1.23539 13.7414 1.88944 14 2.57143 14H13.4286C14.1106 14 14.7646 13.7414 15.2468 13.2811C15.7291 12.8208 16 12.1964 16 11.5455V5.59345L15.6994 5.75327L8.27086 9.57146C8.18761 9.61423 8.09454 9.63662 8 9.63662C7.90546 9.63662 7.81239 9.61423 7.72914 9.57146L0.293714 5.74945L0 5.59345Z" fill="#332D21"/>
</svg>
