<svg width="16" height="16" viewBox="0 0 16 16" fill="none" xmlns="http://www.w3.org/2000/svg">
<path d="M14.6359 1.45121C14.6359 1.45121 16.116 0.874064 15.9927 2.2757C15.9516 2.85285 15.5816 4.87285 15.2938 7.05776L14.307 13.53C14.307 13.53 14.2248 14.4782 13.4847 14.6431C12.7447 14.808 11.6346 14.0659 11.429 13.901C11.2645 13.7774 8.34545 11.9223 7.31757 11.0153C7.02976 10.768 6.70084 10.2733 7.35867 9.69612L11.6757 5.57368C12.1691 5.07898 12.6624 3.92469 10.6067 5.32633L4.85071 9.24267C4.85071 9.24267 4.19288 9.6549 2.95947 9.28389L0.287018 8.4594C0.287018 8.4594 -0.69973 7.84103 0.985963 7.22264C5.09741 5.28507 10.1545 3.30629 14.6359 1.45121Z" fill="#332D21"/>
</svg>
