<svg width="32" height="32" viewBox="0 0 32 32" fill="none" xmlns="http://www.w3.org/2000/svg">
<g clip-path="url(#clip0_391_538)">
<path d="M12.7159 19.2031L2.76919 16.6952C2.68272 16.6734 2.62179 16.604 2.61196 16.5127C2.60214 16.4234 2.64538 16.3421 2.72399 16.3004L6.14372 14.5266C6.18695 14.5048 6.23019 14.4988 6.27736 14.5107L11.1141 15.731C11.1888 15.7508 11.2635 15.729 11.3185 15.6714L12.8888 14.0088C12.9281 13.9671 12.9773 13.9472 13.0343 13.9492C13.0913 13.9492 13.1384 13.975 13.1738 14.0187L15.1962 16.4611C15.265 16.5444 15.261 16.6655 15.1863 16.7428L12.9203 19.1436C12.8672 19.2012 12.7925 19.221 12.7159 19.2031ZM16.4206 1.81447C16.4206 2.0724 16.2142 2.27875 15.9607 2.27875C15.7072 2.27875 15.5008 2.07042 15.5008 1.81447C15.5008 1.55852 15.7072 1.35019 15.9607 1.35019C16.2142 1.35019 16.4206 1.55852 16.4206 1.81447ZM15.9587 0.4375C15.8958 0.4375 15.8408 0.463293 15.7995 0.510912L14.807 1.67558C14.7382 1.75494 14.7382 1.87201 14.807 1.95137L15.7995 3.11604C15.8408 3.16564 15.8958 3.19143 15.9587 3.19143C16.0216 3.19143 16.0766 3.16564 16.1179 3.11604L17.1104 1.95137C17.1792 1.87002 17.1792 1.75494 17.1104 1.67558L16.1179 0.510912C16.0766 0.463293 16.0216 0.4375 15.9587 0.4375ZM11.4639 11.9572L12.71 13.4611C12.7729 13.5365 12.7689 13.6457 12.7021 13.7171L11.2104 15.2964C11.1574 15.354 11.0827 15.3738 11.008 15.356L7.20501 14.3957C7.11854 14.3738 7.05761 14.3044 7.04778 14.2151C7.03796 14.1258 7.08119 14.0425 7.15981 14.0028L11.2065 11.9056C11.2949 11.86 11.3991 11.8798 11.4639 11.9592V11.9572ZM12.9144 13.1794L11.5504 11.5306C11.4875 11.4532 11.3814 11.4314 11.293 11.477C9.60865 12.352 7.92433 13.2231 6.24002 14.098C6.19285 14.1219 6.14372 14.1278 6.09262 14.1159L1.47795 12.9532C1.38361 12.9294 1.32072 12.8481 1.31876 12.7508C1.31876 12.6536 1.37968 12.5703 1.47205 12.5425L10.9923 9.87984C11.0728 9.85802 11.1534 9.88182 11.2065 9.94532L13.4784 12.6139C13.5492 12.6973 13.5453 12.8203 13.4706 12.8996L13.1974 13.1893C13.1581 13.231 13.109 13.2508 13.052 13.2488C12.995 13.2469 12.9478 13.2231 12.9124 13.1794H12.9144ZM5.21803 14.6278L1.77865 16.4095C1.70004 16.4512 1.6568 16.5325 1.66663 16.6218C1.67645 16.7111 1.73738 16.7805 1.82385 16.8024L12.8259 19.5781C12.9006 19.596 12.9753 19.5742 13.0284 19.5186L15.208 17.2091C15.2551 17.1595 15.3161 17.1377 15.3829 17.1456C15.4497 17.1536 15.5047 17.1873 15.5401 17.2468L15.7248 17.5543C15.7701 17.6297 15.7661 17.723 15.7131 17.7924L15.4143 18.1893L13.6003 20.2805C13.5551 20.3321 13.5394 20.3956 13.5531 20.463L15.3848 29.328L15.827 31.4689C15.8447 31.5581 15.9155 31.6236 16.0039 31.6355C16.0138 31.6355 16.0255 31.6375 16.0354 31.6375C16.1376 31.6375 16.2221 31.5641 16.2398 31.4629C16.3675 30.7506 16.4953 30.0403 16.623 29.328C17.1537 26.3697 17.6843 23.4134 18.2169 20.4571C18.2287 20.3976 18.215 20.34 18.1776 20.2904L16.5935 18.1912L16.2948 17.7944C16.2417 17.723 16.2358 17.6317 16.283 17.5563L16.4678 17.2488C16.5031 17.1913 16.5582 17.1555 16.625 17.1476C16.6918 17.1397 16.7527 17.1615 16.7999 17.2111L18.9795 19.5206C19.0326 19.5781 19.1072 19.598 19.1819 19.5801L30.182 16.8044C30.2685 16.7825 30.3294 16.7131 30.3412 16.6218C30.3511 16.5325 30.3078 16.4512 30.2292 16.4095L26.7898 14.6258C26.7112 14.5841 26.668 14.5028 26.6778 14.4135C26.6876 14.3242 26.7486 14.2548 26.835 14.231L31.8487 12.9671C31.943 12.9433 32.0059 12.8619 32.0079 12.7647C32.0079 12.6675 31.9469 12.5842 31.8546 12.5584C28.2029 11.5366 24.5513 10.5167 20.8996 9.49294C20.8191 9.47112 20.7385 9.49492 20.6835 9.5604L18.3329 12.3203C18.2936 12.3659 18.2425 12.3877 18.1855 12.3877C18.1265 12.3877 18.0754 12.362 18.04 12.3143L16.3184 10.1318C16.2614 10.0604 16.2614 9.96317 16.3184 9.89175L18.496 7.13186C18.5589 7.05448 18.5589 6.94535 18.496 6.86797L16.173 3.92158C16.1317 3.87 16.0747 3.84222 16.0079 3.84222C15.941 3.84222 15.886 3.87 15.8428 3.92158L13.5197 6.86797C13.4588 6.94734 13.4588 7.05448 13.5197 7.13186L15.6973 9.89175C15.7524 9.96317 15.7524 10.0604 15.6973 10.1318L13.9757 12.3143C13.9383 12.36 13.8872 12.3858 13.8302 12.3877C13.7713 12.3877 13.7202 12.3659 13.6809 12.3203C12.8987 11.3997 12.1145 10.479 11.3303 9.5604C11.2753 9.49691 11.1947 9.47112 11.1141 9.49294C7.46247 10.5148 3.81083 11.5366 0.16116 12.5584C0.0609262 12.5842 0 12.6675 0 12.7667C0 12.8639 0.0648569 12.9453 0.159194 12.9691L5.17086 14.2349C5.25734 14.2568 5.31827 14.3262 5.33006 14.4155C5.33988 14.5048 5.29665 14.5881 5.21607 14.6278H5.21803ZM15.8074 15.5464C15.8624 15.6159 15.8683 15.7091 15.8212 15.7865L15.66 16.0563C15.6227 16.1159 15.5657 16.1516 15.4949 16.1575C15.4241 16.1635 15.3632 16.1357 15.318 16.0821L13.3762 13.7369C13.3134 13.6615 13.3173 13.5504 13.3841 13.479L13.6652 13.1814C13.7045 13.1397 13.7556 13.1199 13.8126 13.1219C13.8695 13.1238 13.9167 13.1496 13.9541 13.1953L15.8074 15.5445V15.5464ZM15.7052 29.2407L13.9128 20.5603C13.899 20.4928 13.9148 20.4293 13.96 20.3777L15.6737 18.4016L15.8526 18.1952C15.8919 18.1496 15.941 18.1258 16 18.1238C16.0059 18.1238 16.0118 18.1238 16.0177 18.1238C16.0825 18.1258 16.1376 18.1555 16.1788 18.2071L16.3263 18.4016L17.818 20.3777C17.8553 20.4273 17.8691 20.4829 17.8573 20.5444L16.2948 29.2407L16.2142 29.6931C16.1965 29.7943 16.112 29.8657 16.0118 29.8677H16.002C15.9037 29.8637 15.8231 29.7963 15.8015 29.699L15.7072 29.2427L15.7052 29.2407ZM19.0817 19.1456L16.8156 16.7448C16.7409 16.6675 16.737 16.5464 16.8058 16.4631L18.8282 14.0207C18.8635 13.977 18.9127 13.9532 18.9697 13.9512C19.0247 13.9492 19.0758 13.9691 19.1151 14.0107L20.6854 15.6734C20.7385 15.731 20.8132 15.7528 20.8879 15.7329L25.7167 14.5147C25.7678 14.5028 25.817 14.5068 25.8641 14.5326L29.278 16.3024C29.3566 16.344 29.3998 16.4254 29.39 16.5147C29.3802 16.604 29.3192 16.6734 29.2328 16.6972L19.288 19.2051C19.2134 19.225 19.1387 19.2031 19.0856 19.1456H19.0817ZM18.6218 13.7389L16.68 16.0841C16.6348 16.1377 16.5719 16.1655 16.5031 16.1595C16.4324 16.1536 16.3754 16.1179 16.34 16.0583L16.1769 15.7885C16.1317 15.7111 16.1356 15.6179 16.1906 15.5484L18.044 13.1992C18.0794 13.1536 18.1285 13.1278 18.1855 13.1258C18.2425 13.1238 18.2936 13.1437 18.3329 13.1854L18.6139 13.483C18.6808 13.5544 18.6847 13.6635 18.6218 13.7409V13.7389ZM18.5275 12.8977C18.4528 12.8183 18.4488 12.6953 18.5196 12.6119L20.7915 9.94333C20.8466 9.87984 20.9272 9.85405 21.0077 9.87786L30.5279 12.5405C30.6203 12.5663 30.6832 12.6496 30.6832 12.7489C30.6832 12.8461 30.6164 12.9274 30.524 12.9512L25.9093 14.1139C25.8582 14.1278 25.8091 14.1219 25.7619 14.0961C24.0776 13.2231 22.3914 12.35 20.707 11.4751C20.6186 11.4294 20.5125 11.4512 20.4496 11.5286L19.0856 13.1774C19.0502 13.2211 19.0011 13.2449 18.9441 13.2469C18.8871 13.2469 18.838 13.229 18.8006 13.1873L18.5275 12.8977ZM15.8349 15.0345L14.1408 12.8858C14.0857 12.8143 14.0857 12.7171 14.1408 12.6457L15.8506 10.4771C15.888 10.4294 15.9391 10.4036 16 10.4036C16.0609 10.4036 16.112 10.4294 16.1494 10.4771L17.8592 12.6457C17.9162 12.7171 17.9162 12.8143 17.8592 12.8858L16.1651 15.0345C16.1238 15.0861 16.0668 15.1139 16 15.1139C15.9332 15.1139 15.8781 15.0861 15.8349 15.0345ZM16.1651 9.53262C16.1238 9.58619 16.0668 9.61397 16 9.61397C15.9332 9.61397 15.8781 9.58619 15.8349 9.53262L13.9423 7.13384C13.8813 7.05646 13.8813 6.94734 13.9423 6.86996L15.8349 4.47118C15.8762 4.41959 15.9332 4.39181 16 4.39181C16.0668 4.39181 16.1238 4.41959 16.1651 4.47118L18.0577 6.86996C18.1206 6.94932 18.1206 7.05646 18.0577 7.13384L16.1651 9.53262ZM20.7915 15.2964L19.2998 13.7171C19.233 13.6457 19.2291 13.5365 19.292 13.4611L20.5361 11.9572C20.5989 11.8798 20.7051 11.858 20.7935 11.9036L24.8402 14.0008C24.9208 14.0425 24.964 14.1238 24.9522 14.2131C24.9424 14.3024 24.8815 14.3718 24.795 14.3937L20.992 15.354C20.9173 15.3718 20.8426 15.35 20.7896 15.2945L20.7915 15.2964ZM16 17.219C15.7465 17.219 15.5401 17.0107 15.5401 16.7548C15.5401 16.4988 15.7465 16.2885 16 16.2885C16.2535 16.2885 16.4599 16.4968 16.4599 16.7548C16.4599 17.0127 16.2535 17.219 16 17.219Z" fill="#CC9A10"/>
</g>
<defs>
<clipPath id="clip0_391_538">
<rect width="32" height="32" fill="white"/>
</clipPath>
</defs>
</svg>
